<svg width="120" height="32" viewBox="0 0 120 32" fill="none" xmlns="http://www.w3.org/2000/svg">
<path d="M8.1593 27.2356H3.69295V15.9826H0.650391V12.3188H3.69283V9.71184C3.69283 6.62251 5.03851 4.40686 9.49277 4.40686C10.4348 4.40686 11.9139 4.59878 11.9139 4.59878V8.00078H10.3604C8.77755 8.00078 8.15954 8.4874 8.15954 9.83272V12.3188H11.8546L11.5256 15.9826H8.15942L8.1593 27.2356ZM18.4074 12.026C18.3424 12.026 18.2754 12.0284 18.2091 12.0301C14.0677 12.0301 12.1729 15.1786 12.1729 19.648C12.1729 25.2783 14.6307 27.5316 18.2415 27.5316C20.3074 27.5316 21.6647 26.6528 22.4896 25.0128V27.2372H26.7378V12.3204H22.4896V14.6144C21.816 13.1385 20.4208 12.0435 18.4074 12.026ZM19.4876 15.5508C21.2271 15.5508 22.2711 16.7771 22.2711 18.8629L22.2751 20.9932C22.2751 22.3991 21.4128 24.0438 19.4876 24.0438C16.5279 24.0438 16.607 20.8138 16.607 19.738C16.607 16.1193 18.1839 15.5508 19.4876 15.5508ZM28.4534 19.7796C28.4534 17.9669 28.3676 12.0358 36.0133 12.0358C39.0824 12.0358 40.3639 13.022 40.3639 13.022L39.3339 16.2509C39.3339 16.2509 38.054 15.5386 36.3863 15.5386C34.2502 15.5386 32.8873 16.7901 32.8873 18.9921L32.8896 20.5711C32.8896 22.6869 34.2047 24.0993 36.3907 24.0993C37.91 24.0993 39.3103 23.3803 39.3103 23.3803L40.3377 26.5418C40.3377 26.5418 39.1659 27.5343 36.0347 27.5343C28.7548 27.5343 28.4535 22.2129 28.4535 19.7796H28.4534ZM65.2723 12.0301C69.4139 12.0301 71.3385 15.1786 71.3385 19.648C71.3385 25.2783 68.8806 27.5316 65.2698 27.5316C63.2039 27.5316 61.6768 26.6529 60.8518 25.0128V27.2372L56.6571 27.2355V4.86041L61.1108 4.46784V14.4123C61.7536 12.6725 63.866 12.0301 65.2724 12.0301H65.2723ZM64.0237 15.5508C62.2842 15.5508 61.1108 16.7771 61.1108 18.8629L61.1066 20.9932C61.104 22.3991 61.9193 24.0438 64.0237 24.0438C66.9834 24.0438 66.9043 20.8138 66.9043 19.738C66.9043 16.1193 65.3275 15.5508 64.0237 15.5508ZM48.0914 12.0425C43.394 12.0425 40.9141 14.6309 40.9141 19.2309V20.0855C40.9141 26.0559 44.3967 27.593 48.5486 27.593C52.5842 27.593 54.4109 26.4522 54.4109 26.4522L53.5775 23.4141C53.5775 23.4141 51.4287 24.3381 49.0826 24.3381C46.6503 24.3381 45.6043 23.7116 45.3362 21.3492H54.7669V18.9119C54.7669 13.9221 51.9837 12.0423 48.0913 12.0423L48.0914 12.0425ZM48.2046 15.0846C49.8306 15.0846 50.8842 16.0923 50.8264 18.4295H45.3443C45.4394 15.9697 46.5756 15.0847 48.2046 15.0847V15.0846ZM80.219 12.022C75.3951 12.022 72.8556 14.7694 72.8556 19.693C72.8556 26.4483 77.2332 27.5357 80.227 27.5357C84.6098 27.5357 87.5257 25.1509 87.5257 19.7543C87.5257 14.1374 84.2471 12.022 80.219 12.022ZM80.1583 15.5631C82.2794 15.5631 83.1199 17.1675 83.1199 18.9938V20.564C83.1199 22.7764 81.9438 24.0561 80.1502 24.0561C78.4728 24.0561 77.2939 22.8591 77.2939 20.564V18.9938C77.2939 16.5461 78.6967 15.5631 80.1583 15.5631ZM96.3982 12.022C91.5743 12.022 89.0348 14.7694 89.0348 19.693C89.0348 26.4483 93.4124 27.5357 96.4062 27.5357C100.789 27.5357 103.705 25.1509 103.705 19.7543C103.705 14.1374 100.426 12.022 96.3982 12.022ZM96.3375 15.5631C98.4586 15.5631 99.299 17.1675 99.299 18.9938V20.564C99.299 22.7764 98.1229 24.0561 96.3294 24.0561C94.652 24.0561 93.4731 22.8591 93.4731 20.564V18.9938C93.4731 16.5461 94.8759 15.5631 96.3375 15.5631ZM105.388 27.2356V4.86041L109.854 4.46784V19.4651L114.286 12.3188H119.003L114.38 19.7203L119.181 27.2356H114.45L109.854 19.9383V27.2356H105.388Z" fill="#E9EDF2"/>
</svg>
