<svg width="110" height="32" viewBox="0 0 110 32" fill="none" xmlns="http://www.w3.org/2000/svg">
<g clip-path="url(#clip0_686_24488)">
<path d="M17.8843 28.1548L10.7323 28.0225C8.41658 27.9765 6.09516 28.0685 3.82494 27.5912C0.371254 26.8782 0.126594 23.3818 -0.129446 20.4491C-0.482211 16.3259 -0.345657 12.1281 0.320046 8.0394C0.69557 5.74494 2.17491 4.37632 4.46219 4.2268C12.1832 3.68626 19.9554 3.74951 27.6594 4.00253C28.473 4.02554 29.2923 4.15205 30.0946 4.29581C34.0547 4.99737 34.1514 8.95948 34.4074 12.2948C34.6635 15.6646 34.5554 19.0517 34.066 22.3985C33.6734 25.1703 32.9224 27.4935 29.7532 27.7177C25.7817 28.011 21.9013 28.2468 17.9185 28.172C17.9185 28.1548 17.8957 28.1548 17.8843 28.1548ZM13.6796 21.1391C16.6724 19.4025 19.6083 17.6946 22.5841 15.9694C19.5856 14.2328 16.6554 12.5249 13.6796 10.7997V21.1391Z" fill="#E9EDF2"/>
<path d="M91.7734 25.0035C91.6368 25.567 91.5173 26.0098 91.3979 26.4814H88.5985V4.65796H91.8644V12.7087C92.0351 12.4902 92.1205 12.3982 92.1944 12.3004C92.752 11.5241 93.4746 11.0181 94.4077 10.8225C95.8928 10.5293 97.1616 11.1906 97.6111 12.634C97.9013 13.5311 98.089 14.4914 98.1118 15.4288C98.1573 17.8383 98.1232 20.242 98.0378 22.6515C98.0037 23.3876 97.7818 24.1409 97.503 24.831C96.5869 27.1082 93.5941 27.4532 92.1091 25.4808C92.018 25.36 91.9327 25.2277 91.7734 25.0035ZM91.9327 18.9999V22.9908C91.9327 23.6406 92.2741 24.0374 92.917 24.1869C93.5486 24.3364 94.0607 24.0891 94.3167 23.4968C94.4248 23.2495 94.5329 22.9908 94.5386 22.732C94.6012 20.2937 94.6581 17.8555 94.6752 15.4115C94.6752 14.9572 94.5671 14.4857 94.4305 14.0429C94.1745 13.2435 93.4689 13.0078 92.7748 13.4736C92.2513 13.8301 91.9327 14.3362 91.9327 15.009V18.9999ZM83.0567 11.1331H86.4762V26.4929H83.8077C83.711 25.9121 83.6143 25.314 83.5005 24.6124C83.3184 24.8827 83.2103 25.0552 83.0965 25.2277C82.2089 26.5216 80.9515 26.9644 79.4664 26.7286C78.1976 26.5216 77.4352 25.5325 77.2645 23.9109C77.2133 23.4278 77.1905 22.939 77.1905 22.456C77.1792 18.8619 77.1905 15.2562 77.1905 11.6621V11.1216H80.6499V11.7484C80.6499 15.2217 80.6385 18.6893 80.6613 22.1627C80.6613 22.6572 80.7125 23.169 80.7978 23.6636C80.8946 24.1696 81.2587 24.3537 81.748 24.3192C82.5389 24.2559 83.0851 23.6636 83.0851 22.87V11.8116C83.0567 11.5874 83.0567 11.3804 83.0567 11.1331ZM59.5125 11.1216H62.9491V11.7714C62.9491 15.2275 62.9377 18.6778 62.9605 22.1224C62.9605 22.617 63.006 23.1288 63.1084 23.6118C63.2393 24.1811 63.5693 24.3652 64.1325 24.2904C64.912 24.1811 65.3843 23.6348 65.39 22.8355V11.8346V11.1446H68.8095V26.4929H66.1524C66.0557 25.9236 65.959 25.337 65.8338 24.5952C65.6631 24.854 65.5664 25.0035 65.4696 25.1587C64.582 26.4756 63.336 26.9587 61.8168 26.7229C60.5992 26.5389 59.8539 25.6303 59.6263 24.1409C59.5637 23.6751 59.5182 23.215 59.5182 22.7492C59.5068 19.0171 59.5068 15.2677 59.5068 11.5356L59.5125 11.1216ZM57.7486 19.3219C57.7373 19.8395 57.7031 20.357 57.6747 20.8746C57.5438 22.4272 57.4812 24.6297 56.2409 25.7625C55.45 26.4756 54.4486 26.7344 53.413 26.7689C52.9522 26.7804 52.4856 26.7804 52.0247 26.7171C49.8456 26.3836 48.8328 25.4118 48.4687 22.9908C48.0533 20.196 48.0192 17.3552 48.5142 14.5604C49.0262 11.6679 50.7901 10.6443 53.5325 10.834C56.0929 11.0181 57.2366 12.7145 57.5381 15.1297C57.7031 16.5156 57.7828 17.9188 57.7486 19.3219ZM54.2665 18.7928C54.2665 17.8095 54.2893 16.8204 54.2551 15.8371C54.2324 15.2677 54.1584 14.6927 54.0389 14.1291C53.9024 13.4793 53.4927 13.1688 52.9806 13.1803C52.4799 13.1918 52.1272 13.5023 51.9451 14.1061C51.8825 14.3304 51.8142 14.5604 51.8142 14.7847C51.8142 16.3259 51.8028 17.8728 51.7915 19.4139C51.7801 20.8516 51.598 22.3582 52.0475 23.7326C52.1841 24.1524 52.5368 24.3824 52.9977 24.3824C53.4472 24.3824 53.7431 24.1581 53.9081 23.7556C54.0389 23.4451 54.1527 23.1058 54.1527 22.7722C54.1925 21.4496 54.2665 20.1212 54.2665 18.7928ZM43.4503 15.9003C43.7518 14.4109 44.0363 12.956 44.3493 11.4954C44.7419 9.63796 45.18 7.78052 45.5669 5.91733C45.6636 5.46304 45.8457 5.35378 46.2724 5.36528C47.1885 5.39978 48.1216 5.37678 49.1002 5.37678C48.7816 6.5614 48.4686 7.68851 48.1614 8.79837C47.1885 12.2832 46.2155 15.7795 45.2539 19.2759C45.18 19.5462 45.1458 19.8395 45.1458 20.127C45.1345 22.0362 45.1458 23.9396 45.1458 25.8488V26.4699H41.8059C41.7946 26.2974 41.7718 26.1248 41.7718 25.9523C41.7718 24.8712 41.6865 23.7844 41.7832 22.7147C42.0278 20.1442 41.2199 17.7807 40.5656 15.3885C39.7007 12.2257 38.8245 9.0514 37.9597 5.88858C37.9142 5.73907 37.8971 5.57805 37.8516 5.39403H41.2597C41.9766 8.88463 42.6992 12.3752 43.4503 15.9003ZM108.797 19.9085H103.039C103.102 21.0758 103.124 22.1857 103.244 23.2841C103.329 24.0489 103.745 24.3767 104.399 24.3824C105.082 24.3939 105.48 24.0489 105.639 23.2898C105.691 23.0425 105.725 22.7953 105.747 22.5422C105.77 22.318 105.782 22.0764 105.799 21.7544C106.772 21.8062 107.722 21.8637 108.661 21.9039C109.207 23.5428 108.222 25.6475 106.567 26.2974C105.264 26.8149 103.927 26.8149 102.595 26.4181C101.611 26.1248 100.877 25.4923 100.547 24.5204C100.24 23.6118 99.9496 22.663 99.887 21.7141C99.7163 19.3737 99.6537 17.0102 100.006 14.6639C100.069 14.2729 100.177 13.8991 100.297 13.5196C100.775 11.9554 101.816 10.9951 103.426 10.834C104.302 10.7478 105.207 10.7823 106.072 10.9318C107.471 11.1791 108.217 12.1969 108.541 13.5311C108.689 14.1579 108.797 14.8019 108.82 15.4403C108.826 16.9067 108.797 18.3616 108.797 19.9085ZM105.526 17.89C105.526 16.7341 105.537 15.6473 105.514 14.5547C105.514 14.2959 105.417 14.0256 105.321 13.7783C105.127 13.2953 104.723 13.163 104.24 13.163C103.756 13.163 103.449 13.4103 103.329 13.8531C102.965 15.1815 103.085 16.5386 103.096 17.9015C103.967 17.89 104.757 17.89 105.526 17.89Z" fill="#E9EDF2"/>
<path d="M71.4498 8.19475H68.0645V5.42297H78.1694V8.1775H74.8068V26.4701H71.4555L71.4498 8.19475Z" fill="#E9EDF2"/>
</g>
<defs>
<clipPath id="clip0_686_24488">
<rect width="110" height="32" fill="white"/>
</clipPath>
</defs>
</svg>
