<svg width="40" height="40" viewBox="0 0 40 40" fill="none" xmlns="http://www.w3.org/2000/svg">
<g clip-path="url(#clip0_686_24515)">
<path d="M34.6201 12.3108C31.2091 15.5558 26.4623 16.8681 21.9183 17.5242C17.8633 18.1207 13.6293 18.3712 10.0037 19.946C6.211 21.6042 3.8257 24.3481 4.01652 28.5951C4.13579 31.1481 5.50735 33.6415 7.43945 35.5622C7.97615 35.9917 8.52475 36.3973 9.09725 36.7671C9.06145 36.6955 9.0257 36.612 8.96605 36.5404C6.66425 33.379 4.87524 24.3242 16.9211 22.3558C19.3422 21.9621 21.7633 21.5565 24.1724 21.0077C26.2954 20.5186 30.088 19.3256 30.5055 19.0989C30.8513 18.8961 28.2513 21.819 20.2844 24.1095C7.6303 27.7481 11.5184 38.2583 15.3826 39.4632C16.8614 39.8211 18.4119 40.0001 19.9981 40.0001C31.0422 40.0001 39.999 31.0527 39.999 20.0056C39.999 16.033 38.8422 12.3347 36.8504 9.23291C36.3137 10.4021 35.5623 11.4042 34.6201 12.3108Z" fill="#242424"/>
<path d="M0 20.0064C0 22.2015 0.357798 24.2892 1.00183 26.2696C1.24037 24.0984 1.97982 22.0464 3.3633 20.3046C5.8679 17.1194 9.75595 15.6281 13.7991 14.8288C17.8302 14.0414 22.1238 13.9461 26.2624 12.9439C28.5522 12.3952 30.878 11.5004 32.7266 10.033C34.2651 8.7923 34.9807 6.9074 33.3825 5.1537C32.7981 4.62879 32.1779 4.12774 31.5339 3.67441C32.7028 6.0723 31.7963 9.63935 22.3146 10.5698C19.8816 10.8204 17.4606 11.047 15.0633 11.3811C14.3596 11.4766 13.489 11.6077 12.5945 11.7628C12.5945 11.7628 13.3816 10.7846 18.9394 9.52005C30.3651 6.9432 28.2302 1.96843 24.8431 0.596495C23.2927 0.214738 21.6587 0 19.989 0C8.94495 0.0119299 0 8.95935 0 20.0064Z" fill="#242424"/>
</g>
<defs>
<clipPath id="clip0_686_24515">
<rect width="40" height="40" fill="white"/>
</clipPath>
</defs>
</svg>
