<svg width="40" height="40" viewBox="0 0 40 40" fill="none" xmlns="http://www.w3.org/2000/svg">
<path d="M1.48775 15.6638C2.57757 15.7473 3.65541 15.9382 4.73325 16.1649C7.08055 16.654 9.4039 17.3221 11.6554 18.1094C15.9429 19.6365 19.9788 21.8673 24.4578 22.8217C28.889 23.7642 33.5237 22.9887 37.368 20.5789C38.5896 19.8154 39.4039 18.8729 39.9787 17.7158C39.7153 15.3895 39.0566 13.1944 38.0626 11.1782C37.6075 11.8105 37.1045 12.3951 36.6015 12.8961C33.7273 15.7473 29.859 17.1431 25.871 17.5965C21.4638 18.0856 17.368 17.1073 13.368 15.2702C11.2842 14.3158 9.23625 13.2898 7.03265 12.5979C5.3081 12.073 3.58355 11.8344 1.83505 11.5719C1.22427 12.8842 0.74523 14.2919 0.421875 15.7473C0.76918 15.6758 1.11649 15.64 1.48775 15.6638Z" fill="#242424"/>
<path d="M18.2395 29.9192C22.4671 32.3409 27.6407 34.2855 32.5868 33.3192C33.7605 33.0806 34.8742 32.7346 35.9161 32.2455C37.8084 29.8238 39.1617 26.9606 39.7605 23.8231C36.0599 26.3164 31.4132 27.4855 26.982 27.1634C21.8443 26.8055 17.7605 24.348 13.3652 21.9382C11.0898 20.6975 8.8024 19.6238 6.32335 18.8722C5.0539 18.4786 3.76048 18.1207 2.46707 17.8343C1.78443 17.6912 0.94611 17.4884 0.155689 17.4287C0.0718565 18.0849 0.0239521 18.7529 0 19.421C1.4012 19.8147 2.74251 20.3635 4.05988 21.0196C9.0898 23.5248 13.3892 27.1396 18.2395 29.9192Z" fill="#242424"/>
<path d="M11.9605 11.5599C15.6012 12.5501 19.3377 13.8028 23.1581 13.755C26.3796 13.7073 29.7209 13.1108 32.4035 11.2498C33.5652 10.4385 35.0383 9.0666 35.4695 7.67085C35.5174 7.5277 35.5413 7.4084 35.5532 7.27715C31.8646 2.82736 26.3078 0 20.0683 0C12.5952 0 6.0802 4.07998 2.61914 10.1045C5.697 9.6631 9.1341 10.7964 11.9605 11.5599Z" fill="#242424"/>
<path d="M5.68655 25.9945C3.91411 24.5867 2.12968 23.1671 0.09375 22.1411C1.17159 32.1741 9.69855 40 20.0578 40C23.5668 40 26.8602 39.1053 29.7344 37.5186C26.3812 37.4828 23.004 36.6358 19.962 35.2639C14.8004 32.9376 10.0938 29.5137 5.68655 25.9945Z" fill="#242424"/>
</svg>
