<svg width="40" height="40" viewBox="0 0 40 40" fill="none" xmlns="http://www.w3.org/2000/svg">
<path d="M33.8317 23.7586C31.7174 17.4299 24.9866 13.9666 18.5483 15.8248C16.3616 16.456 14.6893 17.5616 13.3365 19.5462C11.218 22.825 6.8729 23.7503 3.6323 21.6133C1.59481 20.2698 0.475658 18.0183 0.453345 15.73C-1.24887 23.6067 1.89661 32.0767 8.9779 36.7458C14.2601 40.2287 20.5775 40.8355 26.1257 38.95C32.4813 36.7814 35.9491 30.0874 33.8317 23.7586Z" fill="#242424"/>
<path d="M31.0224 3.25401C21.8666 -2.78289 9.6 -0.179078 3.62375 9.0691C2.9808 10.0644 2.43649 11.0958 1.98906 12.1522C0.735455 15.1303 1.38134 18.4359 3.67953 19.9519C6.3312 21.7005 10.1983 20.4602 12.3162 17.1808C12.3162 17.1808 19.1803 9.2405 28.4588 14.2495C37.7355 19.2582 37.8454 30.847 30.8745 36.8475C33.1677 35.3667 35.1942 33.3825 36.7785 30.9307C42.7547 21.6827 40.1776 9.29085 31.0224 3.25401Z" fill="#242424"/>
</svg>
