<svg width="54" height="54" viewBox="0 0 54 54" fill="none" xmlns="http://www.w3.org/2000/svg">
<g clip-path="url(#clip0_964_27073)">
<path d="M5.1875 10.8207C6.29418 10.8207 7.38612 10.8501 8.49278 10.9677C11.2078 11.2175 13.9081 11.732 16.5788 12.3934C19.2496 13.0696 21.8761 13.8779 24.4731 14.804C27.0848 15.73 29.4605 16.656 31.9247 17.5526C34.3593 18.4492 36.7498 19.3311 39.0959 20.0954C41.442 20.8597 43.7439 21.5212 45.9572 21.9621C48.1558 22.4031 50.2807 22.6383 52.2136 22.5648C52.7006 22.5648 53.1727 22.5207 53.6302 22.4619C53.5564 22.0209 53.4678 21.58 53.3646 21.1538C53.3646 21.1538 53.3646 21.1538 53.3498 21.1538C51.5939 20.9185 49.7642 20.5364 47.8755 20.0366C45.6031 19.4487 43.257 18.6991 40.8666 17.8025C38.4909 16.8911 36.071 15.8622 33.6806 14.6864C32.4854 14.0985 31.3049 13.4811 30.1245 12.8197C29.5343 12.4963 28.9441 12.173 28.3833 11.8201L26.6717 10.8354C24.4141 9.54188 22.1122 8.35131 19.8103 7.32241C17.5084 6.27881 15.2213 5.3822 12.9785 4.75017C12.6243 4.66198 12.2849 4.57378 11.9308 4.4856C9.34861 6.19063 7.06144 8.35131 5.1875 10.8207Z" fill="white"/>
<path d="M28.9864 6.9818L30.7128 8.05478C31.2735 8.4076 31.8195 8.74564 32.3802 9.09839C33.4721 9.8039 34.5788 10.4948 35.6707 11.1709C37.8546 12.5379 40.0236 13.846 42.1779 15.0219C44.3323 16.2125 46.457 17.2708 48.5376 18.0939C50.0574 18.7113 51.5478 19.1816 52.979 19.5049C49.718 8.23115 39.2858 0 26.9354 0C23.881 0 20.9446 0.49975 18.2148 1.44046C19.4396 1.91081 20.6495 2.45466 21.8594 3.0426C24.2942 4.23318 26.6845 5.57075 28.9864 6.9818Z" fill="white"/>
<path d="M47.189 33.1281C45.2265 33.9218 43.1311 34.6567 40.9325 35.3182C38.7192 35.9649 36.4173 36.5234 34.0564 36.9644C33.4662 37.0673 32.876 37.1702 32.271 37.2731C31.6808 37.3612 31.0758 37.4495 30.4708 37.523C29.8511 37.5965 29.2904 37.6699 28.6707 37.7434C28.1247 37.8022 27.5492 37.8757 26.9737 37.9492C24.6719 38.2432 22.3995 38.596 20.2157 39.081C18.0466 39.5513 15.9365 40.1393 14.0774 40.8889C13.1478 41.2711 12.2772 41.6679 11.4951 42.1089C10.7278 42.5646 10.049 43.0643 9.53261 43.5494C9.01616 44.0638 8.64728 44.5636 8.44073 45.0339C8.23411 45.5042 8.16033 45.9452 8.18983 46.4156C8.18983 46.4597 8.20461 46.5038 8.20461 46.5479C13.074 51.1632 19.6402 54 26.8852 54C41.0063 54 52.6042 43.2407 53.8732 29.4976C53.4453 29.821 52.9879 30.1296 52.5304 30.4382C50.9516 31.4378 49.1367 32.3197 47.189 33.1281Z" fill="white"/>
<path d="M8.65592 37.2155C9.7478 36.5982 10.8693 36.069 12.0202 35.6428C14.3221 34.7755 16.7125 34.1729 19.1177 33.7173C21.5376 33.2763 24.0018 32.9676 26.4364 32.7912C27.0562 32.7472 27.6612 32.703 28.2809 32.6736C28.8711 32.6296 29.4466 32.6149 30.0368 32.5708C31.2025 32.4973 32.3534 32.4385 33.5044 32.365C35.8062 32.218 38.0639 32.0857 40.2477 31.8652C42.4315 31.6447 44.5268 31.3361 46.4746 30.8804C48.3928 30.41 50.1782 29.7927 51.6833 28.9843C52.5686 28.4992 53.3802 27.9407 53.9999 27.338C53.9999 27.2205 53.9999 27.1029 53.9999 27C53.1736 27.3675 52.2883 27.6761 51.3734 27.9701C49.3519 28.6021 47.1385 29.0872 44.7924 29.4841C42.4463 29.8956 39.9526 30.219 37.3704 30.4247C34.7734 30.6599 32.1026 30.7481 29.4023 30.6746C28.7383 30.6746 28.0448 30.6453 27.366 30.6011C26.6873 30.5864 26.0085 30.5423 25.315 30.4835C24.6215 30.4247 23.9722 30.366 23.2935 30.3072C22.6147 30.2484 21.995 30.1896 21.331 30.1308C18.734 29.9103 16.1518 29.7633 13.6433 29.7486C11.1349 29.7192 8.7002 29.8221 6.44258 30.1161C5.32115 30.2631 4.244 30.4395 3.25537 30.7041C2.25199 30.9539 1.3519 31.2479 0.584603 31.6007C0.466558 31.6595 0.348513 31.7182 0.230469 31.777C0.850204 35.2606 2.1487 38.509 3.9784 41.3899C4.43582 40.6696 4.98178 40.0376 5.572 39.4791C6.53111 38.5677 7.57876 37.8328 8.65592 37.2155Z" fill="white"/>
<path d="M52.3529 24.4417C50.2576 24.6475 48.0148 24.6769 45.6391 24.5593C43.2782 24.4711 40.7845 24.2359 38.2318 23.8978C35.6791 23.5598 33.0526 23.0747 30.4261 22.4427C29.7768 22.2957 29.1276 22.1193 28.4783 21.943C27.8291 21.7666 27.1651 21.5902 26.5158 21.3844C25.8518 21.1786 25.2173 21.0022 24.5681 20.7965L22.6794 20.2086C20.1857 19.4442 17.6772 18.7534 15.1983 18.2242C12.7341 17.6803 10.2846 17.2835 7.98275 17.1218C5.69566 16.9455 3.51184 16.9895 1.72641 17.4011C1.66739 17.4158 1.60836 17.4305 1.54934 17.4452C0.796804 19.4442 0.265601 21.5755 0 23.7803C0.486935 23.6333 0.97387 23.501 1.46081 23.3834C2.81832 23.06 4.1906 22.8249 5.56286 22.6779C8.30743 22.3839 11.0815 22.3545 13.8555 22.4721C16.6148 22.619 19.3888 22.8836 22.1187 23.2805C24.8779 23.6774 27.3864 24.1036 29.9686 24.5005C32.5214 24.9267 35.0298 25.3383 37.4792 25.6764C39.9287 26.0144 42.3043 26.2496 44.5472 26.2937C46.7901 26.3378 48.9148 26.1908 50.774 25.7793C51.9398 25.5294 53.0021 25.1766 53.917 24.721C53.917 24.5593 53.8875 24.3976 53.8875 24.2212C53.3858 24.3094 52.8694 24.3829 52.3529 24.4417Z" fill="white"/>
</g>
<defs>
<clipPath id="clip0_964_27073">
<rect width="54" height="54" fill="white"/>
</clipPath>
</defs>
</svg>
