<svg width="54" height="54" viewBox="0 0 54 54" fill="none" xmlns="http://www.w3.org/2000/svg">
<g clip-path="url(#clip0_964_27066)">
<path d="M48.1702 22.2782C46.9296 23.0915 45.4794 23.8396 43.8843 24.4902C42.3053 25.1246 40.549 25.6612 38.7283 26.1004C36.9076 26.5396 34.9579 26.8323 32.9923 27.0112C32.0094 27.1089 31.0104 27.1739 30.0114 27.2065C29.4958 27.2227 29.0125 27.2227 28.513 27.2389H26.9661C25.0004 27.1577 22.9703 26.995 21.0367 26.7022C19.1033 26.4257 17.2019 26.0353 15.4296 25.5149C13.6411 24.9944 11.9654 24.3764 10.4508 23.677C8.9362 22.9776 7.56662 22.1969 6.43877 21.3674C5.31089 20.5216 4.40859 19.6596 3.74798 18.83C3.10348 18.0005 2.71677 17.2198 2.4912 16.5855C2.44286 16.4229 2.39452 16.2603 2.34619 16.1301C2.31396 16 2.29785 15.8699 2.26562 15.7723C3.18404 13.6416 4.39248 11.6085 5.87483 9.73807C6.10041 10.6976 6.63212 12.0476 7.69555 13.2675C8.72675 14.4874 10.193 15.5934 11.9493 16.4879C13.6894 17.3988 15.7357 18.0819 17.9915 18.521C19.1193 18.765 20.2956 18.9276 21.504 19.0415C22.7285 19.1391 23.9853 19.1879 25.2582 19.1716C25.9027 19.1716 26.5472 19.1391 27.2239 19.1066C27.5462 19.0903 27.8523 19.0741 28.1907 19.0415C28.529 19.009 28.8674 18.9765 29.2058 18.9439C30.5432 18.7812 31.8966 18.5373 33.2662 18.2445C34.6196 17.9517 35.9892 17.5777 37.3426 17.0898C38.0033 16.8457 38.6799 16.5693 39.3406 16.2765C40.0012 15.9674 40.6618 15.6422 41.3063 15.2681C42.5792 14.5362 43.8199 13.6579 44.8349 12.5031C45.3344 11.9175 45.7856 11.2832 46.1239 10.5513C46.4623 9.8194 46.6395 9.02243 46.6395 8.20919C46.6395 8.12785 46.6395 8.04652 46.6395 7.98145C49.3464 10.9091 51.3122 14.276 52.5367 17.8542C52.2145 18.4397 51.7955 19.0741 51.2316 19.6921C50.4582 20.5704 49.427 21.465 48.1702 22.2782Z" fill="#242424"/>
<path d="M50.1595 34.6529C48.7577 35.4498 47.1465 36.1817 45.3902 36.7998C43.6178 37.4179 41.7165 37.9221 39.7186 38.3287C37.7206 38.7353 35.626 39.0281 33.4991 39.207C32.4196 39.2883 31.3561 39.3533 30.2605 39.3859C29.7127 39.4021 29.1971 39.4021 28.6492 39.4021L26.9897 39.3859C24.8467 39.3371 22.6554 39.1745 20.5446 38.8979C18.4339 38.6214 16.3715 38.2311 14.4218 37.7431C12.4561 37.2552 10.6193 36.6697 8.92748 35.9703C7.25179 35.2871 5.7211 34.5064 4.4321 33.6932C3.77149 33.2866 3.19144 32.8474 2.65972 32.4245C2.14412 31.9855 1.67686 31.5626 1.29016 31.1234C0.80678 30.6029 0.436195 30.0987 0.162282 29.627C-0.143857 26.8783 -0.0149559 24.0645 0.53287 21.3157C0.565095 21.3645 0.613433 21.4133 0.661771 21.4621C1.62853 22.5844 2.83696 23.6253 4.25486 24.5687C5.67277 25.5121 7.28399 26.3253 9.02414 27.0409C10.7643 27.7403 12.6334 28.3259 14.5991 28.7812C16.5648 29.2367 18.6111 29.562 20.6896 29.7571C22.7682 29.9524 24.8789 30.0336 27.0219 29.9849L28.5687 29.9361C29.1004 29.8873 29.6482 29.871 30.1638 29.8222C31.2111 29.7246 32.2585 29.627 33.2896 29.4644C35.352 29.1554 37.35 28.7488 39.2513 28.212C41.1687 27.659 42.9733 27.0084 44.6329 26.244C46.2924 25.4633 47.807 24.6012 49.1121 23.6578C50.4172 22.6983 51.4968 21.6573 52.3346 20.6164C52.6086 20.2748 52.8503 19.9332 53.0597 19.6079C54.1715 23.7554 54.3004 28.0981 53.4303 32.2945C53.0436 32.6686 52.5764 33.0426 52.093 33.4167C51.4968 33.8233 50.8523 34.2625 50.1595 34.6529Z" fill="#242424"/>
<path d="M45.5965 8.22376C45.5965 9.52489 44.952 10.7773 44.0175 11.7532C43.5663 12.2412 43.0346 12.6803 42.4868 13.0869C41.9229 13.461 41.3267 13.8026 40.7305 14.1278C38.2653 15.3477 35.5745 15.9495 32.9804 16.2423C31.6753 16.4049 30.3863 16.4537 29.1134 16.4374C28.8072 16.4374 28.5011 16.4374 28.195 16.4212C27.8888 16.4212 27.5504 16.4049 27.2443 16.3886C26.6482 16.3561 26.0198 16.3074 25.4236 16.2423C24.2474 16.1284 23.1034 15.9333 22.0078 15.7218C20.9282 15.4941 19.8809 15.2338 18.9142 14.9411C16.9646 14.3393 15.2727 13.6074 13.9354 12.8267C12.598 12.0459 11.599 11.2002 11.0352 10.4683C10.4551 9.73637 10.2456 9.16707 10.1811 8.79299C10.1651 8.71165 10.1811 8.67918 10.1651 8.63038L10.1328 8.61411C10.1328 8.61411 10.1328 8.56531 10.1328 8.53277C10.1328 8.48397 10.1328 8.43517 10.1328 8.38637C10.1328 8.3213 10.1328 8.25629 10.1328 8.20749C10.1328 8.19122 10.1328 8.15869 10.1328 8.07735C10.1328 7.97975 10.1489 7.84967 10.1811 7.67073C10.2617 7.29665 10.4551 6.72737 11.0352 5.99546C11.6152 5.26355 12.598 4.41778 13.9354 3.63707C14.6443 3.21418 15.4822 2.80756 16.3845 2.43347C16.3201 2.62865 16.2878 2.82383 16.2556 2.98647C16.1911 3.53947 16.1911 3.84851 16.1911 3.84851V4.02742C16.1911 4.02742 16.2073 4.20633 16.2233 4.53163C16.2556 4.7756 16.3523 5.24728 16.4973 5.6539C16.6423 5.99546 16.8195 6.41834 17.0773 6.79242C17.5768 7.57313 18.3341 8.3213 19.2364 8.90686C20.1387 9.49235 21.2343 9.93151 22.4106 10.1918C23.5868 10.452 24.8436 10.5496 26.1648 10.4845C26.3259 10.4845 26.5032 10.4683 26.6482 10.452L26.8898 10.4195H27.0187C26.9866 10.4195 27.0832 10.4195 27.0671 10.4195H27.0832L27.1154 10.4032H27.1637C27.4861 10.3544 27.76 10.3219 28.0983 10.2569C28.8072 10.1267 29.4679 9.94778 30.1285 9.73637C31.4658 9.31348 32.8032 8.71165 33.9794 7.7846C34.1405 7.687 34.2694 7.54059 34.3983 7.42679L34.6078 7.23158L34.8011 7.02017C35.075 6.75989 35.3167 6.43461 35.5262 6.10931C35.9451 5.44245 36.2351 4.64548 36.2351 3.81598L36.219 3.27924C36.1868 3.0678 36.1223 2.85636 36.074 2.62865C36.0095 2.43347 35.929 2.25456 35.8484 2.05938C35.7678 1.89673 35.6551 1.71782 35.5584 1.55518C35.3328 1.22988 35.1073 0.904584 34.8334 0.644347L34.8011 0.611816C38.5876 1.76661 42.1807 3.76719 45.2743 6.62979C45.4837 7.15024 45.5965 7.687 45.5965 8.22376Z" fill="#242424"/>
<path d="M21.2159 51.0192C23.1333 51.1494 25.0506 51.1981 27.0164 51.1494L28.4343 51.0843C28.9177 51.0518 29.4172 51.0355 29.8845 50.9867C30.8512 50.9216 31.8018 50.824 32.7363 50.694C34.6215 50.4499 36.4745 50.1247 38.2307 49.7018C40.0031 49.3277 41.6949 48.8072 43.2578 48.2217C43.4995 48.1241 43.7573 48.0265 43.999 47.929C34.8471 55.427 21.9732 55.98 12.2734 49.5879C13.353 49.8807 14.4808 50.1247 15.6248 50.3361C17.4456 50.6614 19.3146 50.8891 21.2159 51.0192Z" fill="#242424"/>
<path d="M20.5357 4.17397C20.5357 4.17397 20.5357 4.19024 20.5357 4.17397V4.15771C20.5357 4.01132 20.5195 3.89747 20.5195 3.81615C20.5195 3.79989 20.5195 3.76735 20.5195 3.68603C20.5195 3.63724 20.5357 3.58844 20.5518 3.50712C20.6001 3.42579 20.6001 3.3282 20.6807 3.18182C20.8257 2.93785 21.0996 2.58003 21.5669 2.18967C22.018 1.81558 22.6787 1.39269 23.4681 1.03487C23.6776 0.953546 23.8871 0.872222 24.0966 0.774637C24.306 0.693313 24.5316 0.611986 24.7732 0.530662C24.9988 0.465603 25.2566 0.38428 25.4983 0.319221C25.74 0.270427 25.9495 0.205367 26.2234 0.140308C26.2878 0.140308 26.3684 0.124043 26.4329 0.107779C27.6413 0.0264547 28.882 -0.0223404 30.1548 0.0101892C30.5899 0.0752483 31.0088 0.172837 31.4439 0.286691C31.605 0.335485 31.7338 0.38428 31.8789 0.433074C32.0239 0.481868 32.169 0.530662 32.3139 0.595721L32.7328 0.790898L33.1357 1.01861C34.183 1.63667 35.0692 2.66135 35.0531 3.81615C35.0531 4.38542 34.8436 4.93842 34.4891 5.4101C34.1346 5.89804 33.6513 6.2884 33.1357 6.61369L32.749 6.87393L32.3301 7.05281C32.185 7.11788 32.04 7.16668 31.895 7.21548C31.75 7.26428 31.6211 7.34562 31.46 7.36189C30.8638 7.5245 30.2676 7.65464 29.6715 7.68717C29.0753 7.76851 28.4791 7.75224 27.9474 7.71971C27.6735 7.70344 27.3351 7.6709 27.0452 7.65464C26.7873 7.60583 26.5295 7.55703 26.2717 7.5245C25.2083 7.32935 24.2577 7.00407 23.4681 6.64622C22.6787 6.2884 22.018 5.88178 21.5669 5.49142C21.0996 5.10106 20.8257 4.74324 20.6807 4.48301C20.6001 4.36915 20.6001 4.27156 20.5357 4.17397C20.5518 4.15771 20.5679 4.17397 20.5357 4.17397Z" fill="#242424"/>
<path d="M42.6744 46.4963C41.1598 46.968 39.5325 47.3584 37.8245 47.6674C36.1167 47.9764 34.3281 48.1879 32.5074 48.318C31.6051 48.383 30.6867 48.4156 29.7683 48.4318C29.301 48.4481 28.8499 48.4318 28.3987 48.4481L26.9808 48.4156C25.1601 48.3668 23.291 48.2204 21.5026 47.9927C19.7141 47.765 17.9578 47.4397 16.2821 47.0494C14.6225 46.659 13.0435 46.1711 11.6095 45.6343C10.1593 45.0813 8.85421 44.4795 7.74249 43.8127C6.63069 43.1783 5.69617 42.479 5.01944 41.8121C4.34272 41.129 3.90768 40.4947 3.6821 39.9904C3.44041 39.5025 3.37596 39.0471 3.35985 38.9495C3.35985 38.9495 3.35985 38.7868 3.34374 38.7218C3.34374 38.6405 3.34374 38.5754 3.34374 38.5104C3.34374 38.3965 3.32763 38.3477 3.32763 38.3477C3.32763 38.0061 3.23095 37.6809 3.08594 37.3881C4.48773 38.1363 6.01842 38.8194 7.64576 39.3724C9.53097 40.0392 11.5612 40.5923 13.6719 41.0314C15.7826 41.4706 17.9739 41.7633 20.2296 41.9422C22.4532 42.1374 24.7089 42.2025 27.0131 42.1537L28.6887 42.0886C29.2527 42.0561 29.8327 42.0235 30.3806 41.9747C31.5084 41.9097 32.6364 41.7959 33.7319 41.6332C35.9394 41.3404 38.0985 40.9501 40.177 40.4296C42.2394 39.9091 44.2051 39.2748 46.0259 38.5429C47.8465 37.8273 49.5062 36.9652 50.9724 36.0381C51.633 35.6315 52.2453 35.1923 52.8092 34.7532C51.7458 38.2339 49.9734 41.5356 47.4921 44.447C47.2826 44.5934 47.0409 44.7235 46.7993 44.8536C45.5747 45.4717 44.1729 46.0247 42.6744 46.4963Z" fill="#242424"/>
</g>
<defs>
<clipPath id="clip0_964_27066">
<rect width="54" height="54" fill="white"/>
</clipPath>
</defs>
</svg>
