<svg width="54" height="54" viewBox="0 0 54 54" fill="none" xmlns="http://www.w3.org/2000/svg">
<g clip-path="url(#clip0_964_26578)">
<path d="M2.00924 21.1461C3.48049 21.2589 4.93558 21.5166 6.39068 21.8226C9.55952 22.4829 12.696 23.3848 15.7356 24.4477C21.5236 26.5092 26.9721 29.5209 33.0188 30.8093C39.0009 32.0816 45.2577 31.0348 50.4476 27.7815C52.0967 26.7507 53.196 25.4784 53.9721 23.9163C53.6164 20.7758 52.7272 17.8124 51.3853 15.0906C50.7709 15.9442 50.0919 16.7333 49.4128 17.4097C45.5326 21.2589 40.3104 23.1432 34.9266 23.7552C28.9769 24.4155 23.4476 23.0949 18.0476 20.6147C15.2344 19.3263 12.4697 17.9412 9.49486 17.0071C7.16672 16.2985 4.83857 15.9764 2.4781 15.6221C1.65355 17.3937 1.00684 19.2941 0.570312 21.2589C1.03917 21.1623 1.50804 21.1139 2.00924 21.1461Z" fill="#242424"/>
<path d="M24.6233 40.3907C30.3305 43.66 37.3149 46.2852 43.9923 44.9807C45.5767 44.6586 47.0802 44.1915 48.4868 43.5312C51.0413 40.2619 52.8683 36.3966 53.6767 32.1609C48.6809 35.527 42.4078 37.1052 36.4258 36.6704C29.4898 36.1872 23.9767 32.8696 18.0431 29.6163C14.9712 27.9414 11.8832 26.492 8.53652 25.4773C6.82277 24.9459 5.07665 24.4627 3.33054 24.0761C2.40898 23.8829 1.27725 23.6091 0.21018 23.5286C0.0970063 24.4144 0.0323353 25.3162 0 26.2182C1.89162 26.7496 3.7024 27.4905 5.48084 28.3762C12.2712 31.7583 18.0754 36.6382 24.6233 40.3907Z" fill="#242424"/>
<path d="M16.1459 15.6059C21.0609 16.9426 26.1052 18.6337 31.2627 18.5692C35.6118 18.5049 40.1226 17.6996 43.7441 15.1872C45.3124 14.092 47.301 12.2399 47.8831 10.3556C47.9477 10.1624 47.9801 10.0013 47.9962 9.82415C43.0166 3.81693 35.5148 0 27.0915 0C17.0028 0 8.20759 5.50797 3.53516 13.6411C7.69027 13.0452 12.3304 14.5752 16.1459 15.6059Z" fill="#242424"/>
<path d="M7.67919 35.0924C5.28639 33.1919 2.87741 31.2754 0.128906 29.8904C1.584 43.4349 13.0954 53.9999 27.0804 53.9999C31.8175 53.9999 36.2636 52.792 40.1438 50.65C35.617 50.6017 31.0577 49.4582 26.951 47.6061C19.9828 44.4656 13.6289 39.8434 7.67919 35.0924Z" fill="#242424"/>
</g>
<defs>
<clipPath id="clip0_964_26578">
<rect width="54" height="54" fill="white"/>
</clipPath>
</defs>
</svg>
