<?xml version="1.0" encoding="UTF-8"?>
<svg width="236px" height="30px" viewBox="0 0 236 30" version="1.1" xmlns="http://www.w3.org/2000/svg" xmlns:xlink="http://www.w3.org/1999/xlink">
    <!-- Generator: Sketch 47.1 (45422) - http://www.bohemiancoding.com/sketch -->
    <title>logo</title>
    <desc>Created with Sketch.</desc>
    <defs></defs>
    <g id="Symbols" stroke="none" stroke-width="1" fill="none" fill-rule="evenodd">
        <g id="logo/landscape">
            <g id="logo">
                <path d="M46.1651009,24.2231987 L51.9323483,24.2231987 L51.9323483,26.4218007 L43.4860197,26.4218007 L43.4860197,12.1010138 L46.1651009,12.1010138 L46.1651009,24.2231987 L46.1651009,24.2231987 Z" id="Fill-1" fill="#3BB778"></path>
                <path d="M61.9025485,21.0143744 L66.4941319,21.0143744 L64.7412578,16.2502338 C64.6611403,16.0396074 64.5731324,15.7903561 64.4772341,15.5030833 C64.3807289,15.2158106 64.2860446,14.9037938 64.1931811,14.5670329 C64.1003176,14.9037938 64.009275,15.2176212 63.9194463,15.5079115 C63.8296175,15.7982018 63.7416097,16.0522812 63.6554226,16.2707533 L61.9025485,21.0143744 L61.9025485,21.0143744 Z M71.2253141,26.421861 L69.1531838,26.421861 C68.9207216,26.421861 68.730139,26.3639237 68.5808291,26.2486525 C68.4315192,26.1327778 68.3234819,25.9897449 68.2573243,25.8177434 L67.1812003,22.8961315 L61.2154801,22.8961315 L60.1393561,25.8177434 C60.0859444,25.969829 59.9815489,26.1080337 59.8255625,26.2335646 C59.6695761,26.3590956 59.4783866,26.421861 59.2532078,26.421861 L57.1713663,26.421861 L62.8287555,12.1010742 L65.5679249,12.1010742 L71.2253141,26.421861 L71.2253141,26.421861 Z" id="Fill-2" fill="#3BB778"></path>
                <path d="M79.193244,12.1157999 C79.2727546,12.1260597 79.3443748,12.1453721 79.4074977,12.1755478 C79.4706206,12.2045165 79.5319226,12.2479695 79.5914038,12.3040963 C79.6514919,12.3602231 79.7176496,12.4344554 79.7904837,12.526793 L87.350664,22.1039588 C87.3239581,21.8728129 87.3057496,21.6464951 87.2960384,21.4256089 C87.2857202,21.2041193 87.2808646,20.9977174 87.2808646,20.8064034 L87.2808646,12.1013156 L89.6412966,12.1013156 L89.6412966,26.4221024 L88.2568417,26.4221024 C88.0444088,26.4221024 87.8683931,26.3889092 87.7287944,26.3231261 C87.5898026,26.2567396 87.4532387,26.1378473 87.3209234,25.9664493 L79.7904837,16.4285119 C79.81112,16.6403454 79.8256868,16.8497648 79.836005,17.0573736 C79.8457162,17.265586 79.8505718,17.455693 79.8505718,17.627091 L79.8505718,26.4221024 L77.4901398,26.4221024 L77.4901398,12.1013156 L78.8946242,12.1013156 C79.0141935,12.1013156 79.1137334,12.1055402 79.193244,12.1157999" id="Fill-3" fill="#3BB778"></path>
                <path d="M107.380347,19.2612866 C107.380347,18.4755112 107.27413,17.7706066 107.061698,17.1471765 C106.849265,16.5231429 106.547003,15.9944646 106.15552,15.5623484 C105.76343,15.1296288 105.286973,14.7982995 104.726151,14.5671536 C104.164721,14.3360077 103.532278,14.220133 102.828822,14.220133 L100.030172,14.220133 L100.030172,24.3024401 L102.828822,24.3024401 C103.532278,24.3024401 104.164721,24.1871689 104.726151,23.956023 C105.286973,23.7248771 105.76343,23.3929443 106.15552,22.9602247 C106.547003,22.5281086 106.849265,22.0000337 107.061698,21.3760001 C107.27413,20.7519665 107.380347,20.047062 107.380347,19.2612866 M110.119516,19.2612866 C110.119516,20.3114011 109.9435,21.2752132 109.592076,22.1533263 C109.239437,23.0314393 108.745379,23.7876426 108.107474,24.4213324 C107.470176,25.0550222 106.70299,25.5468862 105.806523,25.8969244 C104.910664,26.2469626 103.917692,26.4219817 102.828822,26.4219817 L97.330454,26.4219817 L97.330454,12.1011949 L102.828822,12.1011949 C103.917692,12.1011949 104.910664,12.277421 105.806523,12.6310803 C106.70299,12.9841361 107.470176,13.4760001 108.107474,14.1060688 C108.745379,14.7367411 109.239437,15.4911338 109.592076,16.3692468 C109.9435,17.2479634 110.119516,18.2117755 110.119516,19.2612866" id="Fill-4" fill="#3BB778"></path>
                <path d="M126.902315,23.044777 C127.04859,23.044777 127.174836,23.1009038 127.281053,23.2131574 L128.33654,24.3519886 C127.752046,25.0713775 127.033417,25.6229894 126.180651,26.0056173 C125.326671,26.3888488 124.302745,26.5801628 123.107658,26.5801628 C122.038211,26.5801628 121.077408,26.3991086 120.224035,26.035793 C119.370662,25.6724775 118.642321,25.1673362 118.037797,24.5203691 C117.433274,23.8734019 116.970171,23.1009038 116.648487,22.2028748 C116.326196,21.3048458 116.165354,20.3247388 116.165354,19.2613469 C116.165354,18.1852812 116.344405,17.1997426 116.703112,16.3053347 C117.06182,15.4103232 117.566197,14.6396357 118.216848,13.9926685 C118.868106,13.3457014 119.646217,12.8423706 120.553002,12.4820727 C121.45918,12.1223782 122.460042,11.942531 123.555588,11.942531 C124.625035,11.942531 125.55974,12.112722 126.359701,12.4525005 C127.159662,12.7928824 127.845517,13.243104 128.416658,13.8043721 L127.520191,15.0421796 C127.46678,15.1218435 127.398801,15.1906441 127.315649,15.250392 C127.232497,15.3101399 127.117783,15.3391086 126.972115,15.3391086 C126.819163,15.3391086 126.663177,15.2799642 126.504155,15.1610719 C126.344527,15.0421796 126.142413,14.9136311 125.896598,14.7748228 C125.650782,14.6360146 125.340024,14.5074661 124.965535,14.3885738 C124.589832,14.2696815 124.113376,14.2105371 123.536166,14.2105371 C122.858201,14.2105371 122.236077,14.3276189 121.667971,14.5617824 C121.100472,14.7965494 120.612483,15.1314997 120.204005,15.5672369 C119.796134,16.0029741 119.476878,16.5328595 119.248058,17.1568931 C119.01863,17.7809267 118.904523,18.4822102 118.904523,19.2613469 C118.904523,20.0670383 119.01863,20.7834095 119.248058,21.4104607 C119.476878,22.0381154 119.787637,22.5661903 120.17912,22.9952888 C120.57121,23.4243874 121.032493,23.7526991 121.563575,23.9808274 C122.095264,24.2083523 122.665798,24.3224164 123.276998,24.3224164 C123.641775,24.3224164 123.972563,24.3025005 124.268148,24.2626685 C124.563126,24.2234401 124.835647,24.1606746 125.084497,24.0749756 C125.333954,23.9886731 125.569451,23.87823 125.791595,23.7430429 C126.014346,23.6078557 126.235276,23.4406823 126.454385,23.2427296 C126.520543,23.1829817 126.590342,23.1353041 126.663177,23.0990933 C126.736618,23.0628824 126.816128,23.044777 126.902315,23.044777" id="Fill-5" fill="#585A5A"></path>
                <path d="M147.290888,26.421861 L144.591778,26.421861 L144.591778,20.162816 L137.838842,20.162816 L137.838842,26.421861 L135.139124,26.421861 L135.139124,12.1010742 L137.838842,12.1010742 L137.838842,18.2611429 L144.591778,18.2611429 L144.591778,12.1010742 L147.290888,12.1010742 L147.290888,26.421861 L147.290888,26.421861 Z" id="Fill-6" fill="#585A5A"></path>
                <path d="M164.063551,12.1010742 L164.063551,14.2206158 L157.679035,14.2206158 L157.679035,18.1917388 L162.709444,18.1917388 L162.709444,20.2418763 L157.679035,20.2418763 L157.679035,24.2926632 L164.063551,24.2926632 L164.063551,26.421861 L154.979924,26.421861 L154.979924,12.1010742 L164.063551,12.1010742 L164.063551,12.1010742 Z" id="Fill-7" fill="#585A5A"></path>
                <path d="M181.065581,23.044777 C181.211856,23.044777 181.338102,23.1009038 181.444318,23.2131574 L182.499806,24.3519886 C181.915312,25.0713775 181.196682,25.6229894 180.343916,26.0056173 C179.489936,26.3888488 178.46601,26.5801628 177.270924,26.5801628 C176.201476,26.5801628 175.240673,26.3991086 174.3873,26.035793 C173.533927,25.6724775 172.805586,25.1673362 172.201063,24.5203691 C171.59654,23.8734019 171.133436,23.1009038 170.811752,22.2028748 C170.489462,21.3048458 170.32862,20.3247388 170.32862,19.2613469 C170.32862,18.1852812 170.50767,17.1997426 170.866378,16.3053347 C171.225086,15.4103232 171.729462,14.6396357 172.380114,13.9926685 C173.031372,13.3457014 173.809483,12.8423706 174.716268,12.4820727 C175.622445,12.1223782 176.623307,11.942531 177.718854,11.942531 C178.788301,11.942531 179.723005,12.112722 180.522967,12.4525005 C181.322928,12.7928824 182.008782,13.243104 182.579923,13.8043721 L181.683457,15.0421796 C181.630045,15.1218435 181.562067,15.1906441 181.478914,15.250392 C181.395762,15.3101399 181.281048,15.3391086 181.13538,15.3391086 C180.982429,15.3391086 180.826442,15.2799642 180.667421,15.1610719 C180.507793,15.0421796 180.305678,14.9136311 180.059863,14.7748228 C179.814048,14.6360146 179.503289,14.5074661 179.128801,14.3885738 C178.753098,14.2696815 178.276641,14.2105371 177.699431,14.2105371 C177.021467,14.2105371 176.399342,14.3276189 175.831236,14.5617824 C175.263737,14.7965494 174.775749,15.1314997 174.367271,15.5672369 C173.9594,16.0029741 173.640144,16.5328595 173.411323,17.1568931 C173.181896,17.7809267 173.067789,18.4822102 173.067789,19.2613469 C173.067789,20.0670383 173.181896,20.7834095 173.411323,21.4104607 C173.640144,22.0381154 173.950902,22.5661903 174.342386,22.9952888 C174.734476,23.4243874 175.195759,23.7526991 175.726841,23.9808274 C176.25853,24.2083523 176.829064,24.3224164 177.440263,24.3224164 C177.805041,24.3224164 178.135829,24.3025005 178.431414,24.2626685 C178.726392,24.2234401 178.998913,24.1606746 179.247763,24.0749756 C179.49722,23.9886731 179.732717,23.87823 179.954861,23.7430429 C180.177612,23.6078557 180.398542,23.4406823 180.617651,23.2427296 C180.683809,23.1829817 180.753608,23.1353041 180.826442,23.0990933 C180.899883,23.0628824 180.979394,23.044777 181.065581,23.044777" id="Fill-8" fill="#585A5A"></path>
                <path d="M192.071603,18.1025998 L192.699191,18.1025998 C192.951075,18.1025998 193.160473,18.067596 193.326778,17.9987953 C193.492475,17.9293912 193.635109,17.8189481 193.754678,17.6668626 L197.728993,12.6655409 C197.89469,12.454311 198.068885,12.3070536 198.252184,12.2249756 C198.43427,12.1422942 198.665518,12.1012552 198.944108,12.1012552 L201.25477,12.1012552 L196.404019,18.0531116 C196.251674,18.2383905 196.105399,18.3928901 195.966407,18.518421 C195.826809,18.6439519 195.676892,18.7465494 195.517871,18.8256097 C195.73698,18.9046701 195.934239,19.0175272 196.110255,19.1623706 C196.28627,19.3078175 196.457431,19.4924928 196.623735,19.7170001 L201.62319,26.4220421 L199.253046,26.4220421 C198.934397,26.4220421 198.697079,26.377382 198.540486,26.288062 C198.3845,26.1993454 198.253398,26.0689863 198.147182,25.8969848 L194.073327,20.6083905 C193.941012,20.4369924 193.791095,20.313272 193.625398,20.2372293 C193.459093,20.1611865 193.223596,20.1231651 192.9183,20.1231651 L192.071603,20.1231651 L192.071603,26.4220421 L189.391915,26.4220421 L189.391915,12.0909955 L192.071603,12.0909955 L192.071603,18.1025998 L192.071603,18.1025998 Z" id="Fill-9" fill="#585A5A"></path>
                <path d="M217.071607,12.1010742 L217.071607,14.2206158 L210.687091,14.2206158 L210.687091,18.1917388 L215.7175,18.1917388 L215.7175,20.2418763 L210.687091,20.2418763 L210.687091,24.2926632 L217.071607,24.2926632 L217.071607,26.421861 L207.98798,26.421861 L207.98798,12.1010742 L217.071607,12.1010742 L217.071607,12.1010742 Z" id="Fill-10" fill="#585A5A"></path>
                <path d="M226.942267,18.9147487 L228.615631,18.9147487 C229.120007,18.9147487 229.560046,18.8519833 229.935142,18.7264523 C230.310238,18.6009214 230.619176,18.4277128 230.861956,18.2068267 C231.103523,17.985337 231.285001,17.7228083 231.40457,17.4192407 C231.52414,17.1156731 231.583621,16.7819298 231.583621,16.4192178 C231.583621,15.6925868 231.342661,15.1349397 230.861956,14.7450696 C230.380037,14.355803 229.64502,14.1608679 228.655083,14.1608679 L226.942267,14.1608679 L226.942267,18.9147487 L226.942267,18.9147487 Z M226.942267,20.826078 L226.942267,26.421861 L224.262579,26.421861 L224.262579,12.1010742 L228.655083,12.1010742 C229.637736,12.1010742 230.479577,12.2012575 231.179998,12.4028312 C231.881027,12.604405 232.455202,12.8868496 232.903132,13.2495616 C233.351669,13.6128771 233.680636,14.0474073 233.889427,14.5519451 C234.098825,15.0570864 234.203221,15.6135264 234.203221,16.2212652 C234.203221,16.7028694 234.131601,17.1585226 233.988967,17.5876212 C233.846334,18.0167197 233.640577,18.4065898 233.371698,18.7560245 C233.102819,19.1060627 232.770817,19.4132514 232.375692,19.6775906 C231.980567,19.9413263 231.530816,20.1525562 231.025833,20.3112804 C231.364511,20.5025944 231.657062,20.7765898 231.90227,21.1332667 L235.508165,26.421861 L233.097963,26.421861 C232.864894,26.421861 232.667635,26.375994 232.504972,26.2830528 C232.342309,26.1907151 232.204531,26.0585455 232.091639,25.8871475 L229.063561,21.3016471 C228.950668,21.1296456 228.826243,21.0077358 228.690286,20.9353141 C228.554329,20.8628924 228.353428,20.826078 228.087584,20.826078 L226.942267,20.826078 L226.942267,20.826078 Z" id="Fill-11" fill="#585A5A"></path>
                <path d="M21.8251563,27.9862904 L10.8885083,27.9639604 L6.95303869,24.830515 L13.9894204,21.7061223 L24.8878305,21.7290558 L28.836653,24.8733645 L21.8251563,27.9862904 L21.8251563,27.9862904 Z M35.5404256,24.6736013 L29.6214405,19.9607594 C29.4854835,19.8527304 29.2056792,19.7839298 28.873677,19.7603927 C28.7704954,19.7507365 28.6618512,19.7428908 28.5434957,19.7428908 L12.4004229,19.709094 C12.3020969,19.7042659 12.201343,19.7048694 12.0993753,19.7084905 C11.4511517,19.7084905 10.8442008,19.8690253 10.6663642,20.0766341 L0.482335259,24.5999726 C0.473230995,24.6041972 0.467161486,24.6078183 0.458664174,24.6120429 C0.179466765,24.7375738 0.0805337696,24.896298 0.249873068,25.0308817 L5.94064461,29.5614623 C5.88723293,29.7769168 6.34305305,29.9477113 7.01009208,29.9489183 L7.02162414,29.9489183 C7.12359189,29.9531429 7.22920135,29.9549535 7.33723861,29.9495218 L23.2478492,29.9839222 C23.7625436,30.0291857 24.3816335,29.9561605 24.7549083,29.7901941 L35.3073565,25.1045104 C35.3176746,25.1002858 35.3231372,25.0954577 35.3334553,25.0906296 C35.6114389,24.9657021 35.7091579,24.8075814 35.5404256,24.6736013 L35.5404256,24.6736013 Z" id="Fill-12" fill="#94DFB4"></path>
                <path d="M25.2973403,7.60006578 C25.2627441,7.19933239 25.2530329,6.79678846 25.18991,6.39967617 C24.7140605,3.39538281 22.3748718,0.96684194 19.3965637,0.358499694 C16.3703066,-0.257084721 13.2402609,1.054955 11.6427661,3.69291528 C10.3202201,5.87099778 10.1017178,8.1691796 11.1754139,10.5246953 C11.3095501,10.8204172 11.4442932,11.112518 11.5790363,11.409447 L11.5784293,11.409447 L17.6801066,25.8696456 L23.1493411,13.7884997 C23.6537173,12.6864829 24.151417,11.580845 24.6594349,10.4788282 C25.0843005,9.55545157 25.288843,8.60914141 25.2973403,7.60006578" id="Fill-13" fill="#3BB778"></path>
            </g>
        </g>
    </g>
</svg>